<mxfile host="app.diagrams.net" modified="2023-08-28T01:38:17.950Z" agent="Mozilla/5.0 (Windows NT 10.0; Win64; x64) AppleWebKit/537.36 (KHTML, like Gecko) Chrome/116.0.0.0 Safari/537.36" etag="pkDtbhViwURHlQidexJB" version="21.6.9" type="github">
  <diagram name="Page-1" id="4ZnNFXyoEZe7LMFONqr0">
    <mxGraphModel dx="1479" dy="402" grid="1" gridSize="10" guides="1" tooltips="1" connect="1" arrows="1" fold="1" page="1" pageScale="1" pageWidth="850" pageHeight="1100" math="0" shadow="0">
      <root>
        <mxCell id="0" />
        <mxCell id="1" parent="0" />
        <mxCell id="6k_cG2A3B_EXTdvcoZ3U-2" value="service" style="whiteSpace=wrap;html=1;align=center;" parent="1" vertex="1">
          <mxGeometry x="320" y="200" width="100" height="40" as="geometry" />
        </mxCell>
        <mxCell id="6k_cG2A3B_EXTdvcoZ3U-3" value="" style="line;strokeWidth=1;rotatable=0;dashed=0;labelPosition=right;align=left;verticalAlign=middle;spacingTop=0;spacingLeft=6;points=[];portConstraint=eastwest;" parent="1" vertex="1">
          <mxGeometry x="360" y="300" width="80" as="geometry" />
        </mxCell>
        <mxCell id="6k_cG2A3B_EXTdvcoZ3U-9" style="edgeStyle=orthogonalEdgeStyle;rounded=0;orthogonalLoop=1;jettySize=auto;html=1;" parent="1" source="6k_cG2A3B_EXTdvcoZ3U-8" target="6k_cG2A3B_EXTdvcoZ3U-2" edge="1">
          <mxGeometry relative="1" as="geometry" />
        </mxCell>
        <mxCell id="6k_cG2A3B_EXTdvcoZ3U-8" value="id" style="ellipse;whiteSpace=wrap;html=1;align=center;fontStyle=4;" parent="1" vertex="1">
          <mxGeometry x="320" y="100" width="100" height="40" as="geometry" />
        </mxCell>
        <mxCell id="6k_cG2A3B_EXTdvcoZ3U-12" style="edgeStyle=orthogonalEdgeStyle;rounded=0;orthogonalLoop=1;jettySize=auto;html=1;entryX=0.75;entryY=0;entryDx=0;entryDy=0;exitX=0;exitY=0.5;exitDx=0;exitDy=0;" parent="1" source="6k_cG2A3B_EXTdvcoZ3U-10" target="6k_cG2A3B_EXTdvcoZ3U-2" edge="1">
          <mxGeometry relative="1" as="geometry">
            <Array as="points">
              <mxPoint x="510" y="160" />
              <mxPoint x="395" y="160" />
            </Array>
          </mxGeometry>
        </mxCell>
        <mxCell id="6k_cG2A3B_EXTdvcoZ3U-10" value="rating" style="ellipse;whiteSpace=wrap;html=1;align=center;" parent="1" vertex="1">
          <mxGeometry x="460" y="100" width="100" height="40" as="geometry" />
        </mxCell>
        <mxCell id="6k_cG2A3B_EXTdvcoZ3U-16" style="edgeStyle=orthogonalEdgeStyle;rounded=0;orthogonalLoop=1;jettySize=auto;html=1;entryX=0;entryY=0.5;entryDx=0;entryDy=0;" parent="1" source="6k_cG2A3B_EXTdvcoZ3U-15" target="6k_cG2A3B_EXTdvcoZ3U-2" edge="1">
          <mxGeometry relative="1" as="geometry" />
        </mxCell>
        <mxCell id="6k_cG2A3B_EXTdvcoZ3U-15" value="contact information id" style="ellipse;whiteSpace=wrap;html=1;align=center;" parent="1" vertex="1">
          <mxGeometry x="150" y="200" width="100" height="40" as="geometry" />
        </mxCell>
        <mxCell id="6k_cG2A3B_EXTdvcoZ3U-18" style="edgeStyle=orthogonalEdgeStyle;rounded=0;orthogonalLoop=1;jettySize=auto;html=1;entryX=0.25;entryY=0;entryDx=0;entryDy=0;" parent="1" source="6k_cG2A3B_EXTdvcoZ3U-17" target="6k_cG2A3B_EXTdvcoZ3U-2" edge="1">
          <mxGeometry relative="1" as="geometry" />
        </mxCell>
        <mxCell id="6k_cG2A3B_EXTdvcoZ3U-17" value="description" style="ellipse;whiteSpace=wrap;html=1;align=center;" parent="1" vertex="1">
          <mxGeometry x="150" y="130" width="100" height="40" as="geometry" />
        </mxCell>
        <mxCell id="2XloK-BeQbmO1Se2qZyU-5" style="edgeStyle=orthogonalEdgeStyle;rounded=0;orthogonalLoop=1;jettySize=auto;html=1;entryX=0.25;entryY=1;entryDx=0;entryDy=0;" parent="1" source="2XloK-BeQbmO1Se2qZyU-1" target="2XloK-BeQbmO1Se2qZyU-8" edge="1">
          <mxGeometry relative="1" as="geometry">
            <mxPoint x="315" y="440" as="targetPoint" />
          </mxGeometry>
        </mxCell>
        <mxCell id="2XloK-BeQbmO1Se2qZyU-1" value="service name" style="ellipse;whiteSpace=wrap;html=1;align=center;" parent="1" vertex="1">
          <mxGeometry x="235" y="500" width="100" height="40" as="geometry" />
        </mxCell>
        <mxCell id="2XloK-BeQbmO1Se2qZyU-4" style="edgeStyle=orthogonalEdgeStyle;rounded=0;orthogonalLoop=1;jettySize=auto;html=1;entryX=0.75;entryY=1;entryDx=0;entryDy=0;" parent="1" source="2XloK-BeQbmO1Se2qZyU-3" target="2XloK-BeQbmO1Se2qZyU-8" edge="1">
          <mxGeometry relative="1" as="geometry">
            <mxPoint x="415" y="440" as="targetPoint" />
          </mxGeometry>
        </mxCell>
        <mxCell id="2XloK-BeQbmO1Se2qZyU-3" value="id" style="ellipse;whiteSpace=wrap;html=1;align=center;fontStyle=4;" parent="1" vertex="1">
          <mxGeometry x="385" y="500" width="100" height="40" as="geometry" />
        </mxCell>
        <mxCell id="2XloK-BeQbmO1Se2qZyU-7" style="edgeStyle=orthogonalEdgeStyle;rounded=0;orthogonalLoop=1;jettySize=auto;html=1;entryX=0.5;entryY=1;entryDx=0;entryDy=0;" parent="1" source="2XloK-BeQbmO1Se2qZyU-6" target="6k_cG2A3B_EXTdvcoZ3U-2" edge="1">
          <mxGeometry relative="1" as="geometry" />
        </mxCell>
        <mxCell id="2XloK-BeQbmO1Se2qZyU-6" value="location id" style="ellipse;whiteSpace=wrap;html=1;align=center;" parent="1" vertex="1">
          <mxGeometry x="320" y="280" width="100" height="40" as="geometry" />
        </mxCell>
        <mxCell id="2XloK-BeQbmO1Se2qZyU-8" value="services type" style="whiteSpace=wrap;html=1;align=center;" parent="1" vertex="1">
          <mxGeometry x="310" y="420" width="100" height="40" as="geometry" />
        </mxCell>
        <mxCell id="2XloK-BeQbmO1Se2qZyU-12" style="edgeStyle=orthogonalEdgeStyle;rounded=0;orthogonalLoop=1;jettySize=auto;html=1;entryX=1;entryY=0.25;entryDx=0;entryDy=0;" parent="1" source="2XloK-BeQbmO1Se2qZyU-11" target="6k_cG2A3B_EXTdvcoZ3U-2" edge="1">
          <mxGeometry relative="1" as="geometry" />
        </mxCell>
        <mxCell id="2XloK-BeQbmO1Se2qZyU-11" value="status" style="ellipse;whiteSpace=wrap;html=1;align=center;" parent="1" vertex="1">
          <mxGeometry x="513" y="190" width="100" height="40" as="geometry" />
        </mxCell>
        <mxCell id="2XloK-BeQbmO1Se2qZyU-14" style="edgeStyle=orthogonalEdgeStyle;rounded=0;orthogonalLoop=1;jettySize=auto;html=1;entryX=0;entryY=0.5;entryDx=0;entryDy=0;" parent="1" source="2XloK-BeQbmO1Se2qZyU-13" target="2XloK-BeQbmO1Se2qZyU-8" edge="1">
          <mxGeometry relative="1" as="geometry" />
        </mxCell>
        <mxCell id="2XloK-BeQbmO1Se2qZyU-13" value="status" style="ellipse;whiteSpace=wrap;html=1;align=center;" parent="1" vertex="1">
          <mxGeometry x="150" y="420" width="100" height="40" as="geometry" />
        </mxCell>
        <mxCell id="l1hx-izmJNsPAIyKJFCx-1" value="Users" style="whiteSpace=wrap;html=1;align=center;" parent="1" vertex="1">
          <mxGeometry x="920" y="200" width="100" height="40" as="geometry" />
        </mxCell>
        <mxCell id="l1hx-izmJNsPAIyKJFCx-4" value="" style="edgeStyle=orthogonalEdgeStyle;rounded=0;orthogonalLoop=1;jettySize=auto;html=1;" parent="1" source="l1hx-izmJNsPAIyKJFCx-2" target="l1hx-izmJNsPAIyKJFCx-1" edge="1">
          <mxGeometry relative="1" as="geometry" />
        </mxCell>
        <mxCell id="l1hx-izmJNsPAIyKJFCx-2" value="contact information id" style="ellipse;whiteSpace=wrap;html=1;align=center;" parent="1" vertex="1">
          <mxGeometry x="920" y="320" width="100" height="40" as="geometry" />
        </mxCell>
        <mxCell id="PfkVkHu2TPAGIe9nOB67-1" value="" style="edgeStyle=orthogonalEdgeStyle;rounded=0;orthogonalLoop=1;jettySize=auto;html=1;" edge="1" parent="1" source="l1hx-izmJNsPAIyKJFCx-6" target="l1hx-izmJNsPAIyKJFCx-1">
          <mxGeometry relative="1" as="geometry" />
        </mxCell>
        <mxCell id="l1hx-izmJNsPAIyKJFCx-6" value="Password" style="ellipse;whiteSpace=wrap;html=1;align=center;" parent="1" vertex="1">
          <mxGeometry x="1100" y="200" width="100" height="40" as="geometry" />
        </mxCell>
        <mxCell id="l1hx-izmJNsPAIyKJFCx-9" value="" style="edgeStyle=orthogonalEdgeStyle;rounded=0;orthogonalLoop=1;jettySize=auto;html=1;" parent="1" source="l1hx-izmJNsPAIyKJFCx-8" target="l1hx-izmJNsPAIyKJFCx-1" edge="1">
          <mxGeometry relative="1" as="geometry" />
        </mxCell>
        <mxCell id="l1hx-izmJNsPAIyKJFCx-8" value="status" style="ellipse;whiteSpace=wrap;html=1;align=center;" parent="1" vertex="1">
          <mxGeometry x="920" y="80" width="100" height="40" as="geometry" />
        </mxCell>
        <mxCell id="l1hx-izmJNsPAIyKJFCx-11" value="" style="edgeStyle=orthogonalEdgeStyle;rounded=0;orthogonalLoop=1;jettySize=auto;html=1;" parent="1" source="l1hx-izmJNsPAIyKJFCx-10" target="l1hx-izmJNsPAIyKJFCx-1" edge="1">
          <mxGeometry relative="1" as="geometry" />
        </mxCell>
        <mxCell id="l1hx-izmJNsPAIyKJFCx-10" value="id role" style="ellipse;whiteSpace=wrap;html=1;align=center;" parent="1" vertex="1">
          <mxGeometry x="750" y="200" width="100" height="40" as="geometry" />
        </mxCell>
        <mxCell id="l1hx-izmJNsPAIyKJFCx-13" style="edgeStyle=orthogonalEdgeStyle;rounded=0;orthogonalLoop=1;jettySize=auto;html=1;entryX=0.25;entryY=0;entryDx=0;entryDy=0;" parent="1" source="l1hx-izmJNsPAIyKJFCx-12" target="l1hx-izmJNsPAIyKJFCx-1" edge="1">
          <mxGeometry relative="1" as="geometry" />
        </mxCell>
        <mxCell id="l1hx-izmJNsPAIyKJFCx-12" value="id" style="ellipse;whiteSpace=wrap;html=1;align=center;fontStyle=4;" parent="1" vertex="1">
          <mxGeometry x="770" y="110" width="100" height="40" as="geometry" />
        </mxCell>
        <mxCell id="l1hx-izmJNsPAIyKJFCx-16" value="Roles" style="whiteSpace=wrap;html=1;align=center;" parent="1" vertex="1">
          <mxGeometry x="920" y="420" width="100" height="40" as="geometry" />
        </mxCell>
        <mxCell id="l1hx-izmJNsPAIyKJFCx-18" value="" style="edgeStyle=orthogonalEdgeStyle;rounded=0;orthogonalLoop=1;jettySize=auto;html=1;" parent="1" source="l1hx-izmJNsPAIyKJFCx-17" target="l1hx-izmJNsPAIyKJFCx-16" edge="1">
          <mxGeometry relative="1" as="geometry" />
        </mxCell>
        <mxCell id="l1hx-izmJNsPAIyKJFCx-17" value="role name" style="ellipse;whiteSpace=wrap;html=1;align=center;" parent="1" vertex="1">
          <mxGeometry x="730" y="420" width="100" height="40" as="geometry" />
        </mxCell>
        <mxCell id="l1hx-izmJNsPAIyKJFCx-20" value="" style="edgeStyle=orthogonalEdgeStyle;rounded=0;orthogonalLoop=1;jettySize=auto;html=1;" parent="1" source="l1hx-izmJNsPAIyKJFCx-19" target="l1hx-izmJNsPAIyKJFCx-16" edge="1">
          <mxGeometry relative="1" as="geometry" />
        </mxCell>
        <mxCell id="l1hx-izmJNsPAIyKJFCx-19" value="status" style="ellipse;whiteSpace=wrap;html=1;align=center;" parent="1" vertex="1">
          <mxGeometry x="920" y="530" width="100" height="40" as="geometry" />
        </mxCell>
        <mxCell id="l1hx-izmJNsPAIyKJFCx-22" value="" style="edgeStyle=orthogonalEdgeStyle;rounded=0;orthogonalLoop=1;jettySize=auto;html=1;" parent="1" source="l1hx-izmJNsPAIyKJFCx-21" target="l1hx-izmJNsPAIyKJFCx-16" edge="1">
          <mxGeometry relative="1" as="geometry" />
        </mxCell>
        <mxCell id="l1hx-izmJNsPAIyKJFCx-21" value="id" style="ellipse;whiteSpace=wrap;html=1;align=center;fontStyle=4;" parent="1" vertex="1">
          <mxGeometry x="1110" y="420" width="100" height="40" as="geometry" />
        </mxCell>
        <mxCell id="l1hx-izmJNsPAIyKJFCx-23" value="Contacts information" style="whiteSpace=wrap;html=1;align=center;" parent="1" vertex="1">
          <mxGeometry x="1005" y="710" width="100" height="40" as="geometry" />
        </mxCell>
        <mxCell id="l1hx-izmJNsPAIyKJFCx-26" value="" style="edgeStyle=orthogonalEdgeStyle;rounded=0;orthogonalLoop=1;jettySize=auto;html=1;" parent="1" source="l1hx-izmJNsPAIyKJFCx-25" target="l1hx-izmJNsPAIyKJFCx-23" edge="1">
          <mxGeometry relative="1" as="geometry" />
        </mxCell>
        <mxCell id="l1hx-izmJNsPAIyKJFCx-25" value="id" style="ellipse;whiteSpace=wrap;html=1;align=center;fontStyle=4;" parent="1" vertex="1">
          <mxGeometry x="1005" y="610" width="100" height="40" as="geometry" />
        </mxCell>
        <mxCell id="l1hx-izmJNsPAIyKJFCx-28" value="" style="edgeStyle=orthogonalEdgeStyle;rounded=0;orthogonalLoop=1;jettySize=auto;html=1;" parent="1" source="l1hx-izmJNsPAIyKJFCx-27" target="l1hx-izmJNsPAIyKJFCx-23" edge="1">
          <mxGeometry relative="1" as="geometry" />
        </mxCell>
        <mxCell id="l1hx-izmJNsPAIyKJFCx-27" value="email" style="ellipse;whiteSpace=wrap;html=1;align=center;" parent="1" vertex="1">
          <mxGeometry x="1005" y="830" width="100" height="40" as="geometry" />
        </mxCell>
        <mxCell id="l1hx-izmJNsPAIyKJFCx-30" value="" style="edgeStyle=orthogonalEdgeStyle;rounded=0;orthogonalLoop=1;jettySize=auto;html=1;" parent="1" source="l1hx-izmJNsPAIyKJFCx-29" target="l1hx-izmJNsPAIyKJFCx-23" edge="1">
          <mxGeometry relative="1" as="geometry" />
        </mxCell>
        <mxCell id="l1hx-izmJNsPAIyKJFCx-29" value="phone number" style="ellipse;whiteSpace=wrap;html=1;align=center;" parent="1" vertex="1">
          <mxGeometry x="1165" y="710" width="100" height="40" as="geometry" />
        </mxCell>
        <mxCell id="l1hx-izmJNsPAIyKJFCx-32" style="edgeStyle=orthogonalEdgeStyle;rounded=0;orthogonalLoop=1;jettySize=auto;html=1;entryX=0.75;entryY=1;entryDx=0;entryDy=0;" parent="1" source="l1hx-izmJNsPAIyKJFCx-31" target="l1hx-izmJNsPAIyKJFCx-23" edge="1">
          <mxGeometry relative="1" as="geometry" />
        </mxCell>
        <mxCell id="l1hx-izmJNsPAIyKJFCx-31" value="whatsApp" style="ellipse;whiteSpace=wrap;html=1;align=center;" parent="1" vertex="1">
          <mxGeometry x="1175" y="790" width="100" height="40" as="geometry" />
        </mxCell>
        <mxCell id="l1hx-izmJNsPAIyKJFCx-34" value="" style="edgeStyle=orthogonalEdgeStyle;rounded=0;orthogonalLoop=1;jettySize=auto;html=1;" parent="1" source="l1hx-izmJNsPAIyKJFCx-33" target="l1hx-izmJNsPAIyKJFCx-23" edge="1">
          <mxGeometry relative="1" as="geometry" />
        </mxCell>
        <mxCell id="l1hx-izmJNsPAIyKJFCx-33" value="website" style="ellipse;whiteSpace=wrap;html=1;align=center;" parent="1" vertex="1">
          <mxGeometry x="845" y="710" width="100" height="40" as="geometry" />
        </mxCell>
        <mxCell id="8v3DLjQhCp5-PkDh0FPm-2" value="Locations" style="whiteSpace=wrap;html=1;align=center;" parent="1" vertex="1">
          <mxGeometry x="535" y="710" width="100" height="40" as="geometry" />
        </mxCell>
        <mxCell id="8v3DLjQhCp5-PkDh0FPm-6" value="" style="edgeStyle=orthogonalEdgeStyle;rounded=0;orthogonalLoop=1;jettySize=auto;html=1;" parent="1" source="8v3DLjQhCp5-PkDh0FPm-3" target="8v3DLjQhCp5-PkDh0FPm-2" edge="1">
          <mxGeometry relative="1" as="geometry" />
        </mxCell>
        <mxCell id="8v3DLjQhCp5-PkDh0FPm-3" value="full address" style="ellipse;whiteSpace=wrap;html=1;align=center;" parent="1" vertex="1">
          <mxGeometry x="695" y="710" width="100" height="40" as="geometry" />
        </mxCell>
        <mxCell id="8v3DLjQhCp5-PkDh0FPm-7" value="" style="edgeStyle=orthogonalEdgeStyle;rounded=0;orthogonalLoop=1;jettySize=auto;html=1;" parent="1" source="8v3DLjQhCp5-PkDh0FPm-5" target="8v3DLjQhCp5-PkDh0FPm-2" edge="1">
          <mxGeometry relative="1" as="geometry" />
        </mxCell>
        <mxCell id="8v3DLjQhCp5-PkDh0FPm-5" value="id" style="ellipse;whiteSpace=wrap;html=1;align=center;fontStyle=4;" parent="1" vertex="1">
          <mxGeometry x="535" y="620" width="100" height="40" as="geometry" />
        </mxCell>
        <mxCell id="8v3DLjQhCp5-PkDh0FPm-9" value="" style="edgeStyle=orthogonalEdgeStyle;rounded=0;orthogonalLoop=1;jettySize=auto;html=1;" parent="1" source="8v3DLjQhCp5-PkDh0FPm-8" target="8v3DLjQhCp5-PkDh0FPm-2" edge="1">
          <mxGeometry relative="1" as="geometry" />
        </mxCell>
        <mxCell id="8v3DLjQhCp5-PkDh0FPm-8" value="coordinates" style="ellipse;whiteSpace=wrap;html=1;align=center;" parent="1" vertex="1">
          <mxGeometry x="375" y="710" width="100" height="40" as="geometry" />
        </mxCell>
        <mxCell id="8v3DLjQhCp5-PkDh0FPm-13" value="" style="edgeStyle=orthogonalEdgeStyle;rounded=0;orthogonalLoop=1;jettySize=auto;html=1;entryX=0.25;entryY=1;entryDx=0;entryDy=0;" parent="1" source="8v3DLjQhCp5-PkDh0FPm-12" target="8v3DLjQhCp5-PkDh0FPm-2" edge="1">
          <mxGeometry relative="1" as="geometry" />
        </mxCell>
        <mxCell id="8v3DLjQhCp5-PkDh0FPm-12" value="department id" style="ellipse;whiteSpace=wrap;html=1;align=center;" parent="1" vertex="1">
          <mxGeometry x="465" y="800" width="100" height="40" as="geometry" />
        </mxCell>
        <mxCell id="8v3DLjQhCp5-PkDh0FPm-15" value="" style="edgeStyle=orthogonalEdgeStyle;rounded=0;orthogonalLoop=1;jettySize=auto;html=1;entryX=0.75;entryY=1;entryDx=0;entryDy=0;" parent="1" source="8v3DLjQhCp5-PkDh0FPm-14" target="8v3DLjQhCp5-PkDh0FPm-2" edge="1">
          <mxGeometry relative="1" as="geometry" />
        </mxCell>
        <mxCell id="8v3DLjQhCp5-PkDh0FPm-14" value="country id" style="ellipse;whiteSpace=wrap;html=1;align=center;" parent="1" vertex="1">
          <mxGeometry x="585" y="800" width="100" height="40" as="geometry" />
        </mxCell>
        <mxCell id="8v3DLjQhCp5-PkDh0FPm-16" value="Departments" style="whiteSpace=wrap;html=1;align=center;" parent="1" vertex="1">
          <mxGeometry x="535" y="950" width="100" height="40" as="geometry" />
        </mxCell>
        <mxCell id="8v3DLjQhCp5-PkDh0FPm-18" value="" style="edgeStyle=orthogonalEdgeStyle;rounded=0;orthogonalLoop=1;jettySize=auto;html=1;" parent="1" source="8v3DLjQhCp5-PkDh0FPm-17" target="8v3DLjQhCp5-PkDh0FPm-16" edge="1">
          <mxGeometry relative="1" as="geometry" />
        </mxCell>
        <mxCell id="8v3DLjQhCp5-PkDh0FPm-17" value="name" style="ellipse;whiteSpace=wrap;html=1;align=center;" parent="1" vertex="1">
          <mxGeometry x="355" y="950" width="100" height="40" as="geometry" />
        </mxCell>
        <mxCell id="8v3DLjQhCp5-PkDh0FPm-20" value="" style="edgeStyle=orthogonalEdgeStyle;rounded=0;orthogonalLoop=1;jettySize=auto;html=1;" parent="1" source="8v3DLjQhCp5-PkDh0FPm-19" target="8v3DLjQhCp5-PkDh0FPm-16" edge="1">
          <mxGeometry relative="1" as="geometry" />
        </mxCell>
        <mxCell id="8v3DLjQhCp5-PkDh0FPm-19" value="id" style="ellipse;whiteSpace=wrap;html=1;align=center;fontStyle=4;" parent="1" vertex="1">
          <mxGeometry x="715" y="950" width="100" height="40" as="geometry" />
        </mxCell>
        <mxCell id="8v3DLjQhCp5-PkDh0FPm-22" value="" style="edgeStyle=orthogonalEdgeStyle;rounded=0;orthogonalLoop=1;jettySize=auto;html=1;" parent="1" source="8v3DLjQhCp5-PkDh0FPm-21" target="8v3DLjQhCp5-PkDh0FPm-16" edge="1">
          <mxGeometry relative="1" as="geometry" />
        </mxCell>
        <mxCell id="8v3DLjQhCp5-PkDh0FPm-21" value="status" style="ellipse;whiteSpace=wrap;html=1;align=center;" parent="1" vertex="1">
          <mxGeometry x="535" y="1040" width="100" height="40" as="geometry" />
        </mxCell>
        <mxCell id="8v3DLjQhCp5-PkDh0FPm-23" value="Countries" style="whiteSpace=wrap;html=1;align=center;" parent="1" vertex="1">
          <mxGeometry x="1015" y="950" width="100" height="40" as="geometry" />
        </mxCell>
        <mxCell id="8v3DLjQhCp5-PkDh0FPm-25" value="" style="edgeStyle=orthogonalEdgeStyle;rounded=0;orthogonalLoop=1;jettySize=auto;html=1;" parent="1" source="8v3DLjQhCp5-PkDh0FPm-24" target="8v3DLjQhCp5-PkDh0FPm-23" edge="1">
          <mxGeometry relative="1" as="geometry" />
        </mxCell>
        <mxCell id="8v3DLjQhCp5-PkDh0FPm-24" value="name" style="ellipse;whiteSpace=wrap;html=1;align=center;" parent="1" vertex="1">
          <mxGeometry x="865" y="950" width="100" height="40" as="geometry" />
        </mxCell>
        <mxCell id="8v3DLjQhCp5-PkDh0FPm-29" value="" style="edgeStyle=orthogonalEdgeStyle;rounded=0;orthogonalLoop=1;jettySize=auto;html=1;" parent="1" source="8v3DLjQhCp5-PkDh0FPm-26" target="8v3DLjQhCp5-PkDh0FPm-23" edge="1">
          <mxGeometry relative="1" as="geometry" />
        </mxCell>
        <mxCell id="8v3DLjQhCp5-PkDh0FPm-26" value="status" style="ellipse;whiteSpace=wrap;html=1;align=center;" parent="1" vertex="1">
          <mxGeometry x="1015" y="1040" width="100" height="40" as="geometry" />
        </mxCell>
        <mxCell id="8v3DLjQhCp5-PkDh0FPm-28" value="" style="edgeStyle=orthogonalEdgeStyle;rounded=0;orthogonalLoop=1;jettySize=auto;html=1;" parent="1" source="8v3DLjQhCp5-PkDh0FPm-27" target="8v3DLjQhCp5-PkDh0FPm-23" edge="1">
          <mxGeometry relative="1" as="geometry" />
        </mxCell>
        <mxCell id="8v3DLjQhCp5-PkDh0FPm-27" value="id" style="ellipse;whiteSpace=wrap;html=1;align=center;fontStyle=4;" parent="1" vertex="1">
          <mxGeometry x="1165" y="950" width="100" height="40" as="geometry" />
        </mxCell>
        <mxCell id="9D9NXuqt50OXcZtr8fNS-1" value="Schedules" style="whiteSpace=wrap;html=1;align=center;" parent="1" vertex="1">
          <mxGeometry x="110" y="810" width="100" height="40" as="geometry" />
        </mxCell>
        <mxCell id="9D9NXuqt50OXcZtr8fNS-3" style="edgeStyle=orthogonalEdgeStyle;rounded=0;orthogonalLoop=1;jettySize=auto;html=1;entryX=0.5;entryY=0;entryDx=0;entryDy=0;" parent="1" source="9D9NXuqt50OXcZtr8fNS-2" target="9D9NXuqt50OXcZtr8fNS-1" edge="1">
          <mxGeometry relative="1" as="geometry" />
        </mxCell>
        <mxCell id="9D9NXuqt50OXcZtr8fNS-2" value="id" style="ellipse;whiteSpace=wrap;html=1;align=center;fontStyle=4;" parent="1" vertex="1">
          <mxGeometry x="110" y="720" width="100" height="40" as="geometry" />
        </mxCell>
        <mxCell id="9D9NXuqt50OXcZtr8fNS-5" value="" style="edgeStyle=orthogonalEdgeStyle;rounded=0;orthogonalLoop=1;jettySize=auto;html=1;" parent="1" source="9D9NXuqt50OXcZtr8fNS-4" target="9D9NXuqt50OXcZtr8fNS-1" edge="1">
          <mxGeometry relative="1" as="geometry" />
        </mxCell>
        <mxCell id="9D9NXuqt50OXcZtr8fNS-4" value="day" style="ellipse;whiteSpace=wrap;html=1;align=center;" parent="1" vertex="1">
          <mxGeometry x="-40" y="810" width="100" height="40" as="geometry" />
        </mxCell>
        <mxCell id="9D9NXuqt50OXcZtr8fNS-8" style="edgeStyle=orthogonalEdgeStyle;rounded=0;orthogonalLoop=1;jettySize=auto;html=1;entryX=0.16;entryY=1.025;entryDx=0;entryDy=0;entryPerimeter=0;" parent="1" source="9D9NXuqt50OXcZtr8fNS-6" target="9D9NXuqt50OXcZtr8fNS-1" edge="1">
          <mxGeometry relative="1" as="geometry" />
        </mxCell>
        <mxCell id="9D9NXuqt50OXcZtr8fNS-6" value="time start" style="ellipse;whiteSpace=wrap;html=1;align=center;" parent="1" vertex="1">
          <mxGeometry x="30" y="900" width="100" height="40" as="geometry" />
        </mxCell>
        <mxCell id="9D9NXuqt50OXcZtr8fNS-10" style="edgeStyle=orthogonalEdgeStyle;rounded=0;orthogonalLoop=1;jettySize=auto;html=1;entryX=0.62;entryY=1.025;entryDx=0;entryDy=0;entryPerimeter=0;" parent="1" source="9D9NXuqt50OXcZtr8fNS-9" target="9D9NXuqt50OXcZtr8fNS-1" edge="1">
          <mxGeometry relative="1" as="geometry" />
        </mxCell>
        <mxCell id="9D9NXuqt50OXcZtr8fNS-9" value="time end" style="ellipse;whiteSpace=wrap;html=1;align=center;" parent="1" vertex="1">
          <mxGeometry x="160" y="900" width="100" height="40" as="geometry" />
        </mxCell>
        <mxCell id="9D9NXuqt50OXcZtr8fNS-12" value="" style="edgeStyle=orthogonalEdgeStyle;rounded=0;orthogonalLoop=1;jettySize=auto;html=1;" parent="1" source="9D9NXuqt50OXcZtr8fNS-11" target="9D9NXuqt50OXcZtr8fNS-1" edge="1">
          <mxGeometry relative="1" as="geometry" />
        </mxCell>
        <mxCell id="9D9NXuqt50OXcZtr8fNS-11" value="free day" style="ellipse;whiteSpace=wrap;html=1;align=center;" parent="1" vertex="1">
          <mxGeometry x="260" y="810" width="100" height="40" as="geometry" />
        </mxCell>
      </root>
    </mxGraphModel>
  </diagram>
</mxfile>
